<svg xmlns="http://www.w3.org/2000/svg" xmlns:xlink="http://www.w3.org/1999/xlink" viewBox="0 0 450 480"><defs><style>.cls-1{isolation:isolate;}.cls-2{opacity:0.3;mix-blend-mode:multiply;fill:url(#radial-gradient);}.cls-3{fill:url(#linear-gradient);}</style><radialGradient id="radial-gradient" cx="2676.76" cy="-55938.89" r="93.76" gradientTransform="translate(-1679.67 6974.5) scale(0.73 0.12)" gradientUnits="userSpaceOnUse"><stop offset="0" stop-color="#404041"/><stop offset="1" stop-color="#231f20" stop-opacity="0"/></radialGradient><linearGradient id="linear-gradient" x1="255.76" y1="399.91" x2="192.28" y2="82.52" gradientUnits="userSpaceOnUse"><stop offset="0" stop-color="#e93722"/><stop offset="1" stop-color="#f86f25"/></linearGradient></defs><title>Artboard 1 copy 8</title><g class="cls-1"><g id="Layer_1" data-name="Layer 1"><ellipse class="cls-2" cx="261.76" cy="410.17" rx="68" ry="11"/><path class="cls-3" d="M245.31,404.77q-13.67,2.66-20.41-3.12T216,385q-.28-1.41-1.14-7.11t-3.1-18.47q-2.24-12.77-6.26-34.72t-10.15-56q-12.08-64.64-19.22-101.4l-10.44-53.71q-4.49-23.08,21.9-28.22l17.9-3.48q12.25-2.38,18.58,2.5t8.53,16.19l17,87.64q4,20.74,9.15,48.34t10.3,54.23q5.18,26.62,9.15,48.34t5.63,30.2q2.84,14.61-2.33,22t-17,9.65Z"/></g></g></svg>